<svg width="50" height="50" viewBox="0 0 50 50" fill="none" xmlns="http://www.w3.org/2000/svg">
<rect width="50" height="50" rx="10" fill="white"/>
<path fill-rule="evenodd" clip-rule="evenodd" d="M28.9584 35.7174C28.9584 36.4595 29.9208 36.7509 30.3324 36.1334L38.7366 23.5272C39.0688 23.0288 38.7115 22.3612 38.1125 22.3612H31.5972V14.2827C31.5972 13.5406 30.6348 13.2492 30.2232 13.8667L21.819 26.4729C21.4868 26.9713 21.8441 27.6389 22.4431 27.6389H28.9584V35.7174Z" fill="#16192C"/>
<path opacity="0.3" fill-rule="evenodd" clip-rule="evenodd" d="M13.125 17.2639C13.125 16.4355 13.7966 15.7639 14.625 15.7639H22.1806C23.009 15.7639 23.6806 16.4355 23.6806 17.2639V18.2223C23.6806 19.0507 23.009 19.7222 22.1806 19.7222H14.625C13.7966 19.7222 13.125 19.0507 13.125 18.2223V17.2639ZM13.125 33.0972C13.125 32.2688 13.7966 31.5972 14.625 31.5972H22.1806C23.009 31.5972 23.6806 32.2688 23.6806 33.0972V34.0556C23.6806 34.884 23.009 35.5556 22.1806 35.5556H14.625C13.7966 35.5556 13.125 34.884 13.125 34.0556V33.0972ZM11.9861 23.6806C11.1577 23.6806 10.4861 24.3522 10.4861 25.1806V26.1389C10.4861 26.9673 11.1577 27.6389 11.9861 27.6389H18.2223C19.0507 27.6389 19.7223 26.9673 19.7223 26.1389V25.1806C19.7223 24.3522 19.0507 23.6806 18.2223 23.6806H11.9861Z" fill="#16192C"/>
</svg>
